<svg xmlns="http://www.w3.org/2000/svg" xmlns:xlink="http://www.w3.org/1999/xlink" viewBox="0 0 1113.79 217.23"><defs><style>.a{fill:#fff;}.b{fill:url(#a);}.c{fill:url(#b);}.d{fill:url(#c);}.e{fill:url(#d);}.f{fill:url(#e);}.g{fill:url(#f);}.aa,.ab,.ac,.ad,.h,.i,.j,.k,.l,.m,.n,.o,.p,.q,.r,.s,.t,.u,.v,.w,.x,.y,.z{fill-rule:evenodd;}.h{fill:url(#g);}.i{fill:url(#h);}.j{fill:url(#i);}.k{fill:url(#j);}.l{fill:url(#k);}.m{fill:url(#l);}.n{fill:url(#m);}.o{fill:url(#n);}.p{fill:url(#o);}.q{fill:url(#p);}.r{fill:url(#q);}.s{fill:url(#r);}.t{fill:url(#s);}.u{fill:url(#t);}.v{fill:url(#u);}.w{fill:url(#v);}.x{fill:url(#w);}.y{fill:url(#x);}.z{fill:url(#y);}.aa{fill:url(#z);}.ab{fill:url(#aa);}.ac{fill:url(#ab);}.ad{fill:url(#ac);}</style><linearGradient id="a" x1="649.85" y1="62.77" x2="725.05" y2="62.77" gradientUnits="userSpaceOnUse"><stop offset="0" stop-color="#8f5808"/><stop offset="0.05" stop-color="#965c08"/><stop offset="0.09" stop-color="#a8670d"/><stop offset="0.46" stop-color="#b06d1e"/></linearGradient><linearGradient id="b" x1="736.11" y1="62.77" x2="798.23" y2="62.77" xlink:href="#a"/><linearGradient id="c" x1="810.49" y1="62.77" x2="886.64" y2="62.77" xlink:href="#a"/><linearGradient id="d" x1="896.04" y1="62.77" x2="967.19" y2="62.77" xlink:href="#a"/><linearGradient id="e" x1="961.25" y1="62.77" x2="1047.99" y2="62.77" xlink:href="#a"/><linearGradient id="f" x1="1054.89" y1="62.77" x2="1113.79" y2="62.77" xlink:href="#a"/><linearGradient id="g" x1="72.62" y1="37.97" x2="171.11" y2="37.97" xlink:href="#a"/><linearGradient id="h" x1="75.05" y1="71.92" x2="75.07" y2="71.92" xlink:href="#a"/><linearGradient id="i" x1="75.07" y1="71.86" x2="75.07" y2="71.86" xlink:href="#a"/><linearGradient id="j" x1="58.31" y1="96.9" x2="185.62" y2="96.9" xlink:href="#a"/><linearGradient id="k" x1="45.76" y1="110.34" x2="198.55" y2="110.34" xlink:href="#a"/><linearGradient id="l" x1="63.57" y1="85.15" x2="181.1" y2="85.15" xlink:href="#a"/><linearGradient id="m" x1="68.16" y1="74.5" x2="176.4" y2="74.5" xlink:href="#a"/><linearGradient id="n" x1="149.54" y1="119.13" x2="167.81" y2="119.13" xlink:href="#a"/><linearGradient id="o" x1="169.16" y1="125.99" x2="183.44" y2="125.99" xlink:href="#a"/><linearGradient id="p" x1="128.88" y1="112.47" x2="146.26" y2="112.47" xlink:href="#a"/><linearGradient id="q" x1="184.2" y1="132.93" x2="193.1" y2="132.93" xlink:href="#a"/><linearGradient id="r" x1="193.76" y1="139.02" x2="208.31" y2="139.02" xlink:href="#a"/><linearGradient id="s" x1="36.2" y1="143.25" x2="52.96" y2="143.25" xlink:href="#a"/><linearGradient id="t" x1="53.72" y1="131.9" x2="64.7" y2="131.9" xlink:href="#a"/><linearGradient id="u" x1="82.03" y1="111.23" x2="102.66" y2="111.23" xlink:href="#a"/><linearGradient id="v" x1="103.79" y1="108.59" x2="125.78" y2="108.59" xlink:href="#a"/><linearGradient id="w" x1="65.43" y1="117.22" x2="81.61" y2="117.22" xlink:href="#a"/><linearGradient id="x" x1="114.04" y1="49.53" x2="123.12" y2="49.53" xlink:href="#a"/><linearGradient id="y" x1="124.51" y1="49.66" x2="133.24" y2="49.66" xlink:href="#a"/><linearGradient id="z" x1="104.52" y1="50.62" x2="112.86" y2="50.62" xlink:href="#a"/><linearGradient id="aa" x1="134.57" y1="50.9" x2="142.76" y2="50.9" xlink:href="#a"/><linearGradient id="ab" x1="96.65" y1="52.53" x2="103.23" y2="52.53" xlink:href="#a"/><linearGradient id="ac" x1="143.89" y1="52.05" x2="150.54" y2="52.05" xlink:href="#a"/></defs><title>capital-logo</title><path class="a" d="M274.67,72.77c-3.69,20-19.75,31.65-40.22,31.65-23.68,0-42.36-18.2-42.36-41.65s18.68-41.64,42.36-41.64c19.63,0,36.29,11.66,40.1,30.58l-19.28,4.52c-2.5-11.54-10.59-17.14-20.82-17.14-12.61,0-22.73,10.12-22.73,23.68s10.12,23.8,22.73,23.8c10.11,0,18.2-5.71,20.94-17.61Z"/><path class="a" d="M340,64.8v37.84H321.67V98.23c-4.16,3.57-9.88,6.19-17.85,6.19-13.33,0-22.25-7.73-22.25-19.51s8.92-19.28,24.87-19.28h15.23V64.44c0-5-3.45-8.33-8.45-8.33-5.71,0-9,2.26-10,7.5l-18-3.69c2.61-11.54,13.09-18.8,27.36-18.8C329.4,41.12,340,49.57,340,64.8ZM321.67,79.08V77.77H308.58c-4.76,0-7.74,2.49-7.74,6.18s3.34,6.19,8.34,6.19C315.72,90.14,321.67,85.74,321.67,79.08Z"/><path class="a" d="M418.65,72.77c0,18.92-13.33,31.65-29.16,31.65-7.73,0-13.92-2.38-18.56-6.55v33.32h-19V42.9h19v4.76c4.64-4.17,10.83-6.54,18.56-6.54C405.32,41.12,418.65,54,418.65,72.77Zm-18.68,0c0-9.16-6.07-15.47-14.4-15.47-7.73,0-14.64,6.31-14.64,15.47s6.91,15.47,14.64,15.47C393.9,88.24,400,82.05,400,72.77Z"/><path class="a" d="M450.06,25.29c0,6.07-4.64,10.59-11.06,10.59s-10.95-4.52-10.95-10.59a11,11,0,0,1,22,0Zm-20.58,77.35V42.9h19v59.74Z"/><path class="a" d="M507.53,100a32.38,32.38,0,0,1-16.3,4.4c-14.87,0-23.8-8.09-23.8-23.8V58H456.61V42.9h10.82v-20h19v20h17.61V58H486.47V78.72c0,6.19,3,8.68,8,8.68A19.4,19.4,0,0,0,503.13,85Z"/><path class="a" d="M570.24,64.8v37.84H551.92V98.23c-4.17,3.57-9.88,6.19-17.85,6.19-13.33,0-22.25-7.73-22.25-19.51s8.92-19.28,24.87-19.28h15.23V64.44c0-5-3.46-8.33-8.45-8.33-5.71,0-9,2.26-10,7.5l-18-3.69c2.61-11.54,13.09-18.8,27.36-18.8C559.65,41.12,570.24,49.57,570.24,64.8ZM551.92,79.08V77.77H538.83c-4.76,0-7.74,2.49-7.74,6.18s3.34,6.19,8.33,6.19C546,90.14,551.92,85.74,551.92,79.08Z"/><path class="b" d="M681.38,22.91c26.3,0,43.67,16.18,43.67,39.86s-17.37,39.87-43.67,39.87H649.85V22.91Zm-.71,62.71c14.87,0,24.63-9,24.63-22.85s-9.76-22.84-24.63-22.84H669.48V85.62Z"/><path class="c" d="M798.23,102.64H736.11V22.91h61.76v16.9H755.75v15h38.67v16H755.75v15h42.48Z"/><path class="d" d="M886.64,102.64H870.46L830.12,56.47v46.17H810.49V22.91h16.29l40.35,47.6V22.91h19.51Z"/><path class="e" d="M941.37,40v62.6H921.86V40H896V22.91h71.15V40Z"/><path class="f" d="M1027.05,102.64l-5.6-14.52H987.9l-5.59,14.52H961.25l33.31-79.73h20.11L1048,102.64ZM1004.68,45,994.56,71.22h20.35Z"/><path class="g" d="M1113.79,102.64h-58.9V22.91h19.64V85.5h39.26Z"/><rect class="a" x="581.07" y="12.04" width="20.59" height="91.35"/><path class="a" d="M140.78,132.38c-3.6,11.86-7.93,22.71-12.78,31-9.68,16.45-8,9.33-10.54-3.35-2.73-13.4-8.2-28.08-17.69-39.2a15.44,15.44,0,0,0-4.38,2.31c7.48,9.68,10.58,21.68,11.6,36.57,2,29.94,10.31,61.64,32.93,4.39,3.19-8.09,6.36-17.16,9.37-26.47A58.63,58.63,0,0,1,140.78,132.38Z"/><path class="a" d="M76.21,167.69c12,31.62,24.69,6.55,24.4-17-1.64,7.82-8.31,22.71-14.24,21.57C80.7,171.15,71.18,154.45,76.21,167.69Z"/><path class="a" d="M157.47,134.89C68.75,78.26,52.09,176,46.56,176c-9-.08-25.62-65.25-27.92-93.54C15.2,40,28.39,29,64.43,57.19a43.12,43.12,0,0,0,12.38,6.74,27.08,27.08,0,0,0,3.52-.33,53,53,0,0,1,1.46-9.85C76.35,50.27,71,44.92,65.25,37.24c-25.39-34.19-78-19.94-62.4,42C8,99.48,18.49,139.62,29.45,167.85c21.7,55.83,30.72,28.08,33.39-4.22,2.13-25.75,45.24-59.12,72.1-35.29C276.46,253.82,548,246.3,649.2,106.78,588.29,184.06,321.53,239.6,157.47,134.89Z"/><path class="h" d="M171.11,73.29c-1.13-.92-2.22-1.89-3.38-2.75A55.67,55.67,0,0,0,149.48,62a93.94,93.94,0,0,0-25.09-3.42,87.63,87.63,0,0,0-35.38,7A51.24,51.24,0,0,0,72.9,75.83a1.88,1.88,0,0,1-.28.11c.12-.45.2-.83.31-1.19a16.26,16.26,0,0,1,5.58-8A55.53,55.53,0,0,1,95.6,57.34a77.76,77.76,0,0,1,25.14-4.66,85.23,85.23,0,0,1,30,4.44,46.14,46.14,0,0,1,14.4,7.71c1,.84,2,1.76,2.93,2.64a20.55,20.55,0,0,0-5-5.67,41.2,41.2,0,0,0-9.7-5.81c-.67-.3-1.12-.61-1.12-1.5a18.27,18.27,0,0,0-.29-2.3c5.66,2.48,10.71,5.71,14.8,10.83a13.5,13.5,0,0,0-2.15-4.55,30.29,30.29,0,0,0-11.67-10,61.92,61.92,0,0,0-20-5.91,84.73,84.73,0,0,0-21-.16,57.67,57.67,0,0,0-25,8.92,23.18,23.18,0,0,0-9.32,12q-.12.32-.21.63a1.29,1.29,0,0,0,0,.34,26.57,26.57,0,0,1,8.15-8,49.37,49.37,0,0,1,10.1-5c-.51,1.41-.93,2.66-1.42,3.89-.1.23-.43.37-.69.49a49.25,49.25,0,0,0-15.15,10.1l-3.19,3.17c1.75-5.17,1.72-10.64,2.29-16a19.23,19.23,0,0,1,.33-3.17c.24-.84.07-1.88.84-2.53.12-.09,0-.43.1-.62a8,8,0,0,1,.38-.78c.1-.2.18-.42.27-.62l.51-1.1.23.11c0-.44.09-.87.13-1.36l.87-.24c.06-.38.13-.78.21-1.24l.85-.13c.07-.42.13-.84.21-1.36l1.1-.06c.07-.42.14-.84.22-1.38l1.23.2c0-.53.1-1,.16-1.73l1.42.6c.07-.63.14-1.21.21-2,1.3.81,2.54,1.51,3.73,2.32a1.3,1.3,0,0,0,1.77-.07,45.94,45.94,0,0,1,16.41-7.39c.59-.14.75-.39.74-1,0-1.05,0-2.1,0-3.16l.22-.1a1.88,1.88,0,0,1,.4.45,16.7,16.7,0,0,1,.78,1.79c.18.48.49.67.87.45A1.11,1.11,0,0,0,112,28c.07-.79,0-1.59,0-2.39l.27-.07a2.62,2.62,0,0,1,.33.53,8.9,8.9,0,0,1,.47,1.6c.13.86.62.79,1.2.76s.58-.54.6-1,.1-1.22.14-1.83l.35-.06c.19.86.37,1.73.59,2.69l1.79-.14V25.17l.38,0c.13,1,.26,1.9.38,2.86h2.19V25.18h.33c.12.92.24,1.85.37,2.82h1.26c.12-1.62.24-3.23.31-4.85.31-7.14.54-14.28.81-21.43a3.54,3.54,0,0,1,.13-.46c3,1.49,6.06.7,9-.16,2.83-.83,5.66-1.68,8.57-.53a1.86,1.86,0,0,1,1,1.28c.07,3.71,0,7.42,0,11.14a1.6,1.6,0,0,1-.19.47c-3.33-1.44-6.62-.59-9.86.4a13.76,13.76,0,0,1-8.29.22c0,.48,0,.86,0,1.24.17,4.25.31,8.49.51,12.73H126c.46-.82-.14-2,.85-2.83v3l1.64.1c.53-.83.16-2,.87-2.71l.31.08v2.63c1.38.39,1.37.38,1.91-.86.21-.49.48-.94.72-1.41l.28.13v2.47c.79.44,1.23.24,1.53-.59.25-.66.62-1.26.93-1.9l.3.12V29c.68.41,1,.23,1.32-.42s.69-1.39,1.05-2.07l.33.06c.05.56.11,1.12.14,1.68.1,2.71.1,2.69,2.46,3.45a32.2,32.2,0,0,1,13.26,7.55,1,1,0,0,0,.89.07c1.4-.67,2.77-1.41,4.27-2.19,0,.65.08,1.22.12,1.86l1.18-.34c0,.55.09,1.07.13,1.63l1.32-.36c0,.58,0,1.11.08,1.71l.93-.16c0,.48.05,1,.07,1.49h.94c0,.5,0,1,.09,1.45l.47,0a30.06,30.06,0,0,1,1.33,3.12,18,18,0,0,1,.75,3.5c.41,3.52.72,7.06,1.1,10.58.14,1.3.35,2.59.56,3.88a5.65,5.65,0,0,0,.37.84A52,52,0,0,0,171.11,73.29Z"/><path class="i" d="M75.07,71.88c0,.15,0,.07,0,0Z"/><path class="j" d="M75.07,71.86h0Z"/><path class="k" d="M58.31,109.25c.48-1.26.89-2.56,1.46-3.77.79-1.68,1.68-3.29,2.57-4.91a3.55,3.55,0,0,1,.9-1,59.55,59.55,0,0,1,16.65-8.53,115,115,0,0,1,23.31-5.34,150.63,150.63,0,0,1,23-1.26c13.22.3,26.26,2,39,6.18a65,65,0,0,1,15.56,7.31,3.39,3.39,0,0,1,1.08,1c1.21,2.09,2.36,4.23,3.53,6.35a5.09,5.09,0,0,1,.24.8c-.67-.38-1.18-.68-1.71-1a82.75,82.75,0,0,0-20.6-7.72,156.55,156.55,0,0,0-30.88-4.22,179.13,179.13,0,0,0-23.17.43c-13.12,1.13-26,3.48-38.35,8.67A51.93,51.93,0,0,0,59,109.09a3.1,3.1,0,0,1-.5.29Z"/><path class="l" d="M74.55,104.2a134.3,134.3,0,0,1,25.2-5.62,184.07,184.07,0,0,1,31-1.43c14.81.51,29.42,2.49,43.62,7.29a78.57,78.57,0,0,1,17.84,8.7,14.21,14.21,0,0,1,6.21,8.28c0,.11,0,.24.1.54-.77-.91-1.4-1.74-2.11-2.47a32.2,32.2,0,0,0-14.06-8.23,143.82,143.82,0,0,0-23.14-4.94,212.41,212.41,0,0,0-25.78-2.17c-7.21-.14-14.43-.11-21.62.29s-14.08,1.2-21.08,2.12c-8.62,1.13-17.23,2.49-25.5,5.46a108.73,108.73,0,0,0-11.55,5.11,20.31,20.31,0,0,0-8,6.53c1.43-5.55,5.61-8.11,9.89-10.59C55.31,113.49,67.55,106.55,74.55,104.2Z"/><path class="m" d="M180.84,95.52c-8.69-6.52-18.54-9.81-28.75-12.08a129,129,0,0,0-25.51-3c-14.68-.3-29.14,1.25-43.22,6a56.71,56.71,0,0,0-18.57,9.72c-.35.28-.68.57-1.22,1,.2-.73.31-1.23.47-1.71a16,16,0,0,1,5.38-7.64,56.74,56.74,0,0,1,15.2-8.34,93.71,93.71,0,0,1,25.16-5.67,157.16,157.16,0,0,1,15.78-.69c13,.19,25.78,2.15,38,7.1a54.63,54.63,0,0,1,12.33,6.84,8.94,8.94,0,0,1,3,3.56c.71,1.6,1.45,3.18,2.18,4.77Z"/><path class="n" d="M176.4,85.14a45.86,45.86,0,0,0-10-6.87,77.57,77.57,0,0,0-19.63-6.78,111,111,0,0,0-20.86-2.36,106.66,106.66,0,0,0-37.26,5.39A53.26,53.26,0,0,0,71,84c-1,.81-1.83,1.7-2.81,2.61a1.3,1.3,0,0,1,0-.37c.78-2.89,1.76-5.63,4-7.63a54.09,54.09,0,0,1,15.74-9.41,90.6,90.6,0,0,1,26.68-6.44,100.5,100.5,0,0,1,39.27,4A51.31,51.31,0,0,1,170.42,75,12.54,12.54,0,0,1,173,77.87,27.92,27.92,0,0,1,176.4,85.14Z"/><path class="o" d="M162.18,130.11q-.52-6.48-1.06-13s6.69-6.41,6.69-6.53l-18.27-2.47q.36,7,.72,14C154.32,124.66,158.27,127.34,162.18,130.11Z"/><path class="p" d="M177,140.93c-.77-10.87-1.48-22.81-1.46-22.89l7.89-3.29a89.44,89.44,0,0,0-14.28-3.69c.73,8.61,1.44,17.15,2.16,25.68Z"/><path class="q" d="M135.43,114.19c2.53,1.13,5,2.37,7.43,3.68,0-.79-.06-1.58-.1-2.37.42-.1,3.5-7.41,3.5-7.56-7.24-.35-10.08-.5-17.38-.87,0,1.54.06,3.06.1,4.58Q132.26,112.78,135.43,114.19Z"/><path class="r" d="M189,149.3c1.17.63,2.35,1.2,3.55,1.73-.81-8.9-2.31-26.09-2.67-30.42l3.23-1.35a35.25,35.25,0,0,0-8.9-4.43c.15,1.27,2.57,22.33,3.91,34Z"/><path class="s" d="M198.47,153.52a64.58,64.58,0,0,1,9.84,4.83c-.32-1.41-.7-2.8-1-2.91-1.36-.52-2.7-1.09-4.08-1.56a1.14,1.14,0,0,1-.88-1.07c-1.05-8.31-2.22-16.6-3.11-24.92a8.87,8.87,0,0,0-3.42-6.48c-.64-.51-1.26-1-2.07-1.73,1.32,11.3,2.63,22.36,3.94,33.52Z"/><path class="t" d="M51.88,161.12c.32-1,.66-2,1-3-1.07.2-2.53.48-4.54.93,1.56-13.23,3-25.78,4.61-39.13-.87.72-1.54,1.3-2.22,1.84a9.47,9.47,0,0,0-3.66,6.92c-.94,8.89-2.2,17.75-3.32,26.62a1.19,1.19,0,0,1-.94,1.14c-1.47.52-2.91,1.11-4.36,1.69a1.24,1.24,0,0,0-.91,1.31c0,.57-1.11,6.42-1.35,7.18,1.08-.84,4.9-3.6,5.87-3.89s4.61-.86,9.81-1.59Z"/><path class="u" d="M58.85,122.19c-1.34,15.51-2,22.77-2.29,26.63.56-1.23,1.14-2.45,1.75-3.64Q60.47,141,63,137q.84-10.91,1.68-22l-11,4.65c0,.1,0,.19.07.29C58.85,122.19,59.07,119.69,58.85,122.19Z"/><path class="v" d="M89.55,112.39a45.22,45.22,0,0,1,13.1-3.77c0-.18,0-.36,0-.54L82,110.85c0,.11,0,.22,0,.32.69.52,2.23,1.83,3.71,3.22C87,113.68,88.25,113,89.55,112.39Z"/><path class="w" d="M124.42,110.27c.7-1.81,1.36-3.35,1.36-3.35l-22,1c.07.14.18.32.29.51A56.78,56.78,0,0,1,124.42,110.27Z"/><path class="x" d="M74,122.8c0,.18,0,.38,0,.57a59.32,59.32,0,0,1,7.33-6.14c.1-2.06.2-4.11.31-6.17a122.46,122.46,0,0,0-16.18,3.81c2.16,1.23,0,0,8.61,7.36C74.18,122.35,74,122.6,74,122.8Z"/><path class="y" d="M114,51.34c.14-.94.25-1.83.43-2.7a.72.72,0,0,1,.55-.43c2.68-.19,5.36-.33,8.1-.5v3.21Z"/><path class="z" d="M124.51,47.75l8.5.51c.08,1.17.16,2.24.23,3.31L124.51,51Z"/><path class="aa" d="M112.86,48.36c-.12,1.07-.2,1.94-.34,2.79a.73.73,0,0,1-.48.5c-2.45.42-4.91.8-7.52,1.22.25-1,.48-2.08.75-3.12a.53.53,0,0,1,.38-.3Z"/><path class="ab" d="M134.57,48.47c2.46.49,4.73.92,7,1.4a.84.84,0,0,1,.48.54c.26.92.46,1.86.72,2.92l-4.8-1-.34-.07c-.84-.17-2,0-2.44-.59C134.66,51,134.77,49.75,134.57,48.47Z"/><path class="ac" d="M103.23,49.81c-.23,1.28-.39,2.29-.62,3.28a.85.85,0,0,1-.51.49c-1.77.56-3.55,1.09-5.45,1.67.36-1.25.69-2.44,1-3.63a.52.52,0,0,1,.32-.28C99.68,50.84,101.34,50.36,103.23,49.81Z"/><path class="ad" d="M143.89,49.37c2.16.72,4.14,1.38,6.11,2.06a.68.68,0,0,1,.34.46c.09.93.13,1.87.2,2.85-1.92-.6-3.77-1.18-5.61-1.79a1,1,0,0,1-.42-.62C144.3,51.45,144.13,50.56,143.89,49.37Z"/></svg>